<svg xmlns="http://www.w3.org/2000/svg" xmlns:xlink="http://www.w3.org/1999/xlink" width="500" zoomAndPan="magnify" viewBox="0 0 375 374.999991" height="500" preserveAspectRatio="xMidYMid meet" version="1.0"><defs><g/><clipPath id="e4b7f0f110"><path d="M 162 259 L 218 259 L 218 313 L 162 313 Z M 162 259 " clip-rule="nonzero"/></clipPath><clipPath id="9ce6e1ef28"><path d="M 222.441406 308.980469 L 164.160156 314.03125 L 159.757812 263.222656 L 218.039062 258.171875 Z M 222.441406 308.980469 " clip-rule="nonzero"/></clipPath><clipPath id="6102a04cf8"><path d="M 222.441406 308.980469 L 164.160156 314.03125 L 159.757812 263.222656 L 218.039062 258.171875 Z M 222.441406 308.980469 " clip-rule="nonzero"/></clipPath><clipPath id="1db0837035"><rect x="0" width="375" y="0" height="375"/></clipPath><clipPath id="be4c7d9db1"><path d="M 178 25 L 231 25 L 231 81 L 178 81 Z M 178 25 " clip-rule="nonzero"/></clipPath><clipPath id="07170feb2e"><path d="M 161.089844 40.941406 L 192.980469 13.609375 L 241.785156 70.558594 L 209.894531 97.890625 Z M 161.089844 40.941406 " clip-rule="nonzero"/></clipPath><clipPath id="b71b886425"><path d="M 161.089844 40.941406 L 192.980469 13.609375 L 241.785156 70.558594 L 209.894531 97.890625 Z M 161.089844 40.941406 " clip-rule="nonzero"/></clipPath><clipPath id="5a605821c0"><path d="M 177 59 L 198 59 L 198 80 L 177 80 Z M 177 59 " clip-rule="nonzero"/></clipPath><clipPath id="e6db6f9411"><path d="M 161.089844 40.941406 L 192.980469 13.609375 L 241.785156 70.558594 L 209.894531 97.890625 Z M 161.089844 40.941406 " clip-rule="nonzero"/></clipPath><clipPath id="3f2518cec7"><path d="M 161.089844 40.941406 L 192.980469 13.609375 L 241.785156 70.558594 L 209.894531 97.890625 Z M 161.089844 40.941406 " clip-rule="nonzero"/></clipPath><clipPath id="8c97ab17c5"><path d="M 178 37 L 220 37 L 220 81 L 178 81 Z M 178 37 " clip-rule="nonzero"/></clipPath><clipPath id="7309aca830"><path d="M 161.089844 40.941406 L 192.980469 13.609375 L 241.785156 70.558594 L 209.894531 97.890625 Z M 161.089844 40.941406 " clip-rule="nonzero"/></clipPath><clipPath id="8339ec1631"><path d="M 161.089844 40.941406 L 192.980469 13.609375 L 241.785156 70.558594 L 209.894531 97.890625 Z M 161.089844 40.941406 " clip-rule="nonzero"/></clipPath><clipPath id="27d79915b2"><path d="M 177 59 L 198 59 L 198 80 L 177 80 Z M 177 59 " clip-rule="nonzero"/></clipPath><clipPath id="45c1b60d92"><path d="M 161.089844 40.941406 L 192.980469 13.609375 L 241.785156 70.558594 L 209.894531 97.890625 Z M 161.089844 40.941406 " clip-rule="nonzero"/></clipPath><clipPath id="18557a6a35"><path d="M 161.089844 40.941406 L 192.980469 13.609375 L 241.785156 70.558594 L 209.894531 97.890625 Z M 161.089844 40.941406 " clip-rule="nonzero"/></clipPath><clipPath id="85f92525e2"><path d="M 177 48 L 209 48 L 209 80 L 177 80 Z M 177 48 " clip-rule="nonzero"/></clipPath><clipPath id="e6ede926fe"><path d="M 161.089844 40.941406 L 192.980469 13.609375 L 241.785156 70.558594 L 209.894531 97.890625 Z M 161.089844 40.941406 " clip-rule="nonzero"/></clipPath><clipPath id="3a2e540dbc"><path d="M 161.089844 40.941406 L 192.980469 13.609375 L 241.785156 70.558594 L 209.894531 97.890625 Z M 161.089844 40.941406 " clip-rule="nonzero"/></clipPath></defs><g clip-path="url(#e4b7f0f110)"><g clip-path="url(#9ce6e1ef28)"><g clip-path="url(#6102a04cf8)"><path fill="#c2000b" d="M 174.941406 311.707031 C 175.984375 312.808594 177.710938 312.855469 178.8125 311.816406 L 186.917969 304.160156 L 191.636719 309.15625 C 191.964844 309.503906 192.582031 309.523438 192.933594 309.191406 L 200.652344 301.898438 C 207.207031 295.703125 208.34375 285.957031 203.902344 278.53125 L 216.671875 266.46875 C 218.324219 264.90625 218.398438 262.320312 216.835938 260.667969 C 215.273438 259.011719 212.6875 258.941406 211.03125 260.5 L 198.261719 272.566406 C 191.101562 267.707031 181.308594 268.289062 174.75 274.484375 L 167.03125 281.777344 C 166.679688 282.105469 166.664062 282.726562 166.996094 283.074219 L 171.714844 288.070312 L 163.609375 295.722656 C 162.507812 296.765625 162.460938 298.492188 163.5 299.597656 C 164.542969 300.699219 166.269531 300.746094 167.375 299.707031 L 175.476562 292.050781 L 183.152344 300.179688 L 175.050781 307.832031 C 173.949219 308.875 173.898438 310.601562 174.941406 311.707031 Z M 174.941406 311.707031 " fill-opacity="1" fill-rule="nonzero"/></g></g></g><g transform="matrix(1, 0, 0, 1, 0, 0)"><g clip-path="url(#1db0837035)"><g fill="#ec8d23" fill-opacity="1"><g transform="translate(187.118344, 322.896984)"><g><path d="M 10.28125 -234.328125 C 4.726562 -230.285156 -4.828125 -222.941406 -18.390625 -212.296875 C -25.628906 -206.109375 -31.363281 -201.039062 -35.59375 -197.09375 C -41.050781 -192.019531 -46.0625 -187.078125 -50.625 -182.265625 L -83.40625 -217.453125 L -77.71875 -222.75 C -65.3125 -234.3125 -51.671875 -245.460938 -36.796875 -256.203125 C -31.992188 -259.546875 -26.453125 -263.15625 -20.171875 -267.03125 Z M 41.96875 -125.1875 C 39.007812 -128.363281 36.632812 -130.457031 34.84375 -131.46875 C 33.050781 -132.488281 31.378906 -132.769531 29.828125 -132.3125 C 28.273438 -131.863281 26.070312 -130.585938 23.21875 -128.484375 L -7.875 -105.890625 C -26.070312 -92.328125 -42.203125 -87.332031 -56.265625 -90.90625 C -62.367188 -92.300781 -68.410156 -95.300781 -74.390625 -99.90625 C -80.378906 -104.507812 -87.039062 -110.742188 -94.375 -118.609375 C -110.03125 -135.421875 -116.992188 -151.550781 -115.265625 -167 C -113.941406 -179.53125 -106.359375 -193.238281 -92.515625 -208.125 L -50 -162.484375 C -48.164062 -160.515625 -46.539062 -158.921875 -45.125 -157.703125 C -43.707031 -156.484375 -42.414062 -155.707031 -41.25 -155.375 C -39.945312 -154.875 -38.585938 -154.929688 -37.171875 -155.546875 C -35.765625 -156.160156 -33.929688 -157.375 -31.671875 -159.1875 L 3.25 -184.53125 C 10.601562 -189.6875 16.957031 -193.484375 22.3125 -195.921875 C 27.675781 -198.367188 33.132812 -199.492188 38.6875 -199.296875 C 52.125 -198.515625 67.300781 -189.046875 84.21875 -170.890625 C 102.125 -151.660156 110.4375 -134.242188 109.15625 -118.640625 C 108.613281 -111.628906 106.394531 -104.828125 102.5 -98.234375 C 98.601562 -91.640625 93.234375 -84.726562 86.390625 -77.5 Z M 74.578125 -66.078125 C 59.441406 -51.984375 44.726562 -39.550781 30.4375 -28.78125 C 22.019531 -22.34375 15.488281 -17.671875 10.84375 -14.765625 L -20.03125 -47.921875 C -10.394531 -55.484375 0.523438 -64.242188 12.734375 -74.203125 C 20.273438 -80.660156 25.5625 -85.300781 28.59375 -88.125 C 36.769531 -95.738281 41.929688 -100.972656 44.078125 -103.828125 L 77.0625 -68.40625 Z M 74.578125 -66.078125 "/></g></g></g></g></g><g clip-path="url(#be4c7d9db1)"><g clip-path="url(#07170feb2e)"><g clip-path="url(#b71b886425)"><path fill="#c2000b" d="M 230.492188 80.238281 C 230.632812 80.117188 230.707031 79.960938 230.707031 79.777344 C 230.988281 65.6875 225.757812 52.316406 215.96875 42.128906 C 206.179688 31.9375 193.039062 26.171875 178.960938 25.890625 C 178.789062 25.886719 178.640625 25.945312 178.515625 26.066406 C 178.394531 26.183594 178.328125 26.332031 178.324219 26.503906 C 178.320312 26.675781 178.378906 26.824219 178.5 26.949219 C 178.617188 27.070312 178.765625 27.136719 178.9375 27.140625 C 192.683594 27.414062 205.515625 33.042969 215.070312 42.992188 C 224.625 52.9375 229.734375 65.996094 229.460938 79.746094 C 229.457031 80.015625 229.578125 80.207031 229.820312 80.324219 C 230.0625 80.4375 230.285156 80.410156 230.492188 80.238281 Z M 230.492188 80.238281 " fill-opacity="1" fill-rule="nonzero"/></g></g></g><g clip-path="url(#5a605821c0)"><g clip-path="url(#e6db6f9411)"><g clip-path="url(#3f2518cec7)"><path fill="#c2000b" d="M 197.074219 79.566406 C 197.214844 79.445312 197.289062 79.292969 197.292969 79.105469 C 197.304688 78.46875 197.285156 77.835938 197.238281 77.203125 C 197.1875 76.570312 197.109375 75.9375 196.996094 75.3125 C 196.886719 74.6875 196.746094 74.070312 196.574219 73.457031 C 196.402344 72.84375 196.199219 72.242188 195.96875 71.652344 C 195.738281 71.058594 195.480469 70.480469 195.191406 69.914062 C 194.902344 69.347656 194.589844 68.796875 194.246094 68.261719 C 193.902344 67.726562 193.535156 67.207031 193.144531 66.710938 C 192.75 66.210938 192.335938 65.730469 191.894531 65.273438 C 191.453125 64.8125 190.992188 64.378906 190.511719 63.964844 C 190.027344 63.550781 189.527344 63.164062 189.003906 62.800781 C 188.484375 62.4375 187.945312 62.097656 187.390625 61.789062 C 186.835938 61.476562 186.269531 61.195312 185.6875 60.9375 C 185.105469 60.683594 184.511719 60.457031 183.910156 60.261719 C 183.304688 60.066406 182.691406 59.898438 182.070312 59.761719 C 181.449219 59.625 180.824219 59.519531 180.195312 59.445312 C 179.5625 59.371094 178.929688 59.324219 178.292969 59.3125 C 178.121094 59.308594 177.972656 59.367188 177.847656 59.484375 C 177.726562 59.605469 177.660156 59.75 177.65625 59.921875 C 177.652344 60.097656 177.710938 60.246094 177.832031 60.367188 C 177.949219 60.492188 178.097656 60.558594 178.269531 60.5625 C 178.863281 60.574219 179.457031 60.613281 180.046875 60.683594 C 180.636719 60.753906 181.222656 60.851562 181.804688 60.980469 C 182.386719 61.109375 182.957031 61.261719 183.523438 61.449219 C 184.089844 61.632812 184.644531 61.84375 185.1875 62.082031 C 185.734375 62.320312 186.265625 62.585938 186.785156 62.875 C 187.304688 63.167969 187.804688 63.480469 188.292969 63.824219 C 188.78125 64.164062 189.25 64.527344 189.703125 64.914062 C 190.15625 65.300781 190.585938 65.707031 191 66.136719 C 191.410156 66.566406 191.800781 67.015625 192.167969 67.480469 C 192.535156 67.949219 192.878906 68.433594 193.199219 68.933594 C 193.519531 69.4375 193.816406 69.953125 194.085938 70.480469 C 194.351562 71.011719 194.597656 71.554688 194.8125 72.109375 C 195.027344 72.664062 195.214844 73.226562 195.378906 73.800781 C 195.539062 74.371094 195.667969 74.949219 195.773438 75.535156 C 195.875 76.121094 195.953125 76.710938 195.996094 77.304688 C 196.042969 77.898438 196.058594 78.492188 196.046875 79.085938 C 196.042969 79.355469 196.160156 79.546875 196.40625 79.664062 C 196.648438 79.777344 196.871094 79.746094 197.078125 79.574219 Z M 197.074219 79.566406 " fill-opacity="1" fill-rule="nonzero"/><path fill="#c2000b" d="M 197.074219 79.566406 C 197.214844 79.445312 197.289062 79.292969 197.292969 79.105469 C 197.304688 78.46875 197.285156 77.835938 197.238281 77.203125 C 197.1875 76.570312 197.109375 75.9375 196.996094 75.3125 C 196.886719 74.6875 196.746094 74.070312 196.574219 73.457031 C 196.402344 72.84375 196.199219 72.242188 195.96875 71.652344 C 195.738281 71.058594 195.480469 70.480469 195.191406 69.914062 C 194.902344 69.347656 194.589844 68.796875 194.246094 68.261719 C 193.902344 67.726562 193.535156 67.207031 193.144531 66.710938 C 192.75 66.210938 192.335938 65.730469 191.894531 65.273438 C 191.453125 64.8125 190.992188 64.378906 190.511719 63.964844 C 190.027344 63.550781 189.527344 63.164062 189.003906 62.800781 C 188.484375 62.4375 187.945312 62.097656 187.390625 61.789062 C 186.835938 61.476562 186.269531 61.195312 185.6875 60.9375 C 185.105469 60.683594 184.511719 60.457031 183.910156 60.261719 C 183.304688 60.066406 182.691406 59.898438 182.070312 59.761719 C 181.449219 59.625 180.824219 59.519531 180.195312 59.445312 C 179.5625 59.371094 178.929688 59.324219 178.292969 59.3125 C 178.121094 59.308594 177.972656 59.367188 177.847656 59.484375 C 177.726562 59.605469 177.660156 59.75 177.65625 59.921875 C 177.652344 60.097656 177.710938 60.246094 177.832031 60.367188 C 177.949219 60.492188 178.097656 60.558594 178.269531 60.5625 C 178.863281 60.574219 179.457031 60.613281 180.046875 60.683594 C 180.636719 60.753906 181.222656 60.851562 181.804688 60.980469 C 182.386719 61.109375 182.957031 61.261719 183.523438 61.449219 C 184.089844 61.632812 184.644531 61.84375 185.1875 62.082031 C 185.734375 62.320312 186.265625 62.585938 186.785156 62.875 C 187.304688 63.167969 187.804688 63.480469 188.292969 63.824219 C 188.78125 64.164062 189.25 64.527344 189.703125 64.914062 C 190.15625 65.300781 190.585938 65.707031 191 66.136719 C 191.410156 66.566406 191.800781 67.015625 192.167969 67.480469 C 192.535156 67.949219 192.878906 68.433594 193.199219 68.933594 C 193.519531 69.4375 193.816406 69.953125 194.085938 70.480469 C 194.351562 71.011719 194.597656 71.554688 194.8125 72.109375 C 195.027344 72.664062 195.214844 73.226562 195.378906 73.800781 C 195.539062 74.371094 195.667969 74.949219 195.773438 75.535156 C 195.875 76.121094 195.953125 76.710938 195.996094 77.304688 C 196.042969 77.898438 196.058594 78.492188 196.046875 79.085938 C 196.042969 79.355469 196.160156 79.546875 196.40625 79.664062 C 196.648438 79.777344 196.871094 79.746094 197.078125 79.574219 Z M 197.074219 79.566406 " fill-opacity="1" fill-rule="nonzero"/></g></g></g><g clip-path="url(#8c97ab17c5)"><g clip-path="url(#7309aca830)"><g clip-path="url(#8339ec1631)"><path fill="#c2000b" d="M 219.355469 80.011719 C 219.496094 79.890625 219.566406 79.738281 219.570312 79.550781 C 220.03125 56.566406 201.710938 37.492188 178.738281 37.03125 C 178.566406 37.027344 178.417969 37.085938 178.292969 37.207031 C 178.171875 37.324219 178.105469 37.472656 178.101562 37.644531 C 178.097656 37.816406 178.15625 37.964844 178.277344 38.089844 C 178.394531 38.210938 178.542969 38.277344 178.714844 38.28125 C 201 38.726562 218.769531 57.230469 218.324219 79.527344 C 218.316406 79.796875 218.4375 79.988281 218.679688 80.101562 C 218.925781 80.21875 219.148438 80.1875 219.355469 80.011719 Z M 219.355469 80.011719 " fill-opacity="1" fill-rule="nonzero"/></g></g></g><g clip-path="url(#27d79915b2)"><g clip-path="url(#45c1b60d92)"><g clip-path="url(#18557a6a35)"><path fill="#c2000b" d="M 197.074219 79.566406 C 197.214844 79.445312 197.289062 79.292969 197.292969 79.105469 C 197.304688 78.46875 197.285156 77.835938 197.238281 77.203125 C 197.1875 76.570312 197.109375 75.9375 196.996094 75.3125 C 196.886719 74.6875 196.746094 74.070312 196.574219 73.457031 C 196.402344 72.84375 196.199219 72.242188 195.96875 71.652344 C 195.738281 71.058594 195.480469 70.480469 195.191406 69.914062 C 194.902344 69.347656 194.589844 68.796875 194.246094 68.261719 C 193.902344 67.726562 193.535156 67.207031 193.144531 66.710938 C 192.75 66.210938 192.335938 65.730469 191.894531 65.273438 C 191.453125 64.8125 190.992188 64.378906 190.511719 63.964844 C 190.027344 63.550781 189.527344 63.164062 189.003906 62.800781 C 188.484375 62.4375 187.945312 62.097656 187.390625 61.789062 C 186.835938 61.476562 186.269531 61.195312 185.6875 60.9375 C 185.105469 60.683594 184.511719 60.457031 183.910156 60.261719 C 183.304688 60.066406 182.691406 59.898438 182.070312 59.761719 C 181.449219 59.625 180.824219 59.519531 180.195312 59.445312 C 179.5625 59.371094 178.929688 59.324219 178.292969 59.3125 C 178.121094 59.308594 177.972656 59.367188 177.847656 59.484375 C 177.726562 59.605469 177.660156 59.75 177.65625 59.921875 C 177.652344 60.097656 177.710938 60.246094 177.832031 60.367188 C 177.949219 60.492188 178.097656 60.558594 178.269531 60.5625 C 178.863281 60.574219 179.457031 60.613281 180.046875 60.683594 C 180.636719 60.753906 181.222656 60.851562 181.804688 60.980469 C 182.386719 61.109375 182.957031 61.261719 183.523438 61.449219 C 184.089844 61.632812 184.644531 61.84375 185.1875 62.082031 C 185.734375 62.320312 186.265625 62.585938 186.785156 62.875 C 187.304688 63.167969 187.804688 63.480469 188.292969 63.824219 C 188.78125 64.164062 189.25 64.527344 189.703125 64.914062 C 190.15625 65.300781 190.585938 65.707031 191 66.136719 C 191.410156 66.566406 191.800781 67.015625 192.167969 67.480469 C 192.535156 67.949219 192.878906 68.433594 193.199219 68.933594 C 193.519531 69.4375 193.816406 69.953125 194.085938 70.480469 C 194.351562 71.011719 194.597656 71.554688 194.8125 72.109375 C 195.027344 72.664062 195.214844 73.226562 195.378906 73.800781 C 195.539062 74.371094 195.667969 74.949219 195.773438 75.535156 C 195.875 76.121094 195.953125 76.710938 195.996094 77.304688 C 196.042969 77.898438 196.058594 78.492188 196.046875 79.085938 C 196.042969 79.355469 196.160156 79.546875 196.40625 79.664062 C 196.648438 79.777344 196.871094 79.746094 197.078125 79.574219 Z M 197.074219 79.566406 " fill-opacity="1" fill-rule="nonzero"/></g></g></g><g clip-path="url(#85f92525e2)"><g clip-path="url(#e6ede926fe)"><g clip-path="url(#3a2e540dbc)"><path fill="#c2000b" d="M 208.210938 79.785156 C 208.351562 79.664062 208.425781 79.511719 208.429688 79.324219 C 208.761719 62.488281 195.347656 48.507812 178.523438 48.167969 C 178.351562 48.164062 178.203125 48.222656 178.082031 48.34375 C 177.957031 48.460938 177.890625 48.609375 177.886719 48.78125 C 177.882812 48.953125 177.941406 49.101562 178.0625 49.226562 C 178.179688 49.351562 178.328125 49.414062 178.5 49.417969 C 194.640625 49.742188 207.511719 63.144531 207.191406 79.300781 C 207.183594 79.570312 207.304688 79.761719 207.546875 79.875 C 207.792969 79.992188 208.015625 79.960938 208.222656 79.785156 Z M 208.210938 79.785156 " fill-opacity="1" fill-rule="nonzero"/></g></g></g></svg>